<?xml version="1.0" encoding="UTF-8"?>
<svg version="1.1" xmlns="http://www.w3.org/2000/svg" width="232" height="232">
<path d="M0 0 C0.98371582 -0.00095673 1.96743164 -0.00191345 2.98095703 -0.00289917 C5.04150456 -0.00357515 7.1020543 -0.0017618 9.16259766 0.00244141 C12.33110232 0.00784422 15.49946818 0.00245325 18.66796875 -0.00390625 C20.67447948 -0.00324627 22.68099012 -0.00196676 24.6875 0 C25.63842529 -0.00202423 26.58935059 -0.00404846 27.5690918 -0.00613403 C28.44090088 -0.00298187 29.31270996 0.00017029 30.2109375 0.00341797 C30.98099121 0.00421356 31.75104492 0.00500916 32.54443359 0.00582886 C34.3125 0.1328125 34.3125 0.1328125 35.3125 1.1328125 C36.44283131 7.81797465 36.41385029 14.38841493 36.35473633 21.15356445 C36.34424134 23.58305291 36.33523741 26.01254817 36.32754517 28.44204712 C36.32335697 29.7060648 36.31916878 30.97008247 36.31485367 32.27240372 C36.31097174 38.63941339 36.3796744 45.00529107 36.4519043 51.37182617 C36.47384464 53.34217567 36.47384464 53.34217567 36.49622822 55.35233021 C36.5190917 57.39392161 36.54212783 59.43551061 36.56555134 61.47709566 C36.62342348 66.53150797 36.67595507 71.58595703 36.72554016 76.64045715 C36.73285225 77.38543856 36.74016434 78.13041997 36.74769801 78.89797658 C36.77752318 81.94725262 36.80717265 84.99653034 36.83671319 88.04580915 C36.91994569 96.61780989 37.00840452 105.18968856 37.11157227 113.76147461 C37.19444634 120.65015831 37.26645541 127.53885907 37.32573253 134.4277876 C37.35730755 138.05066799 37.39423275 141.67330713 37.44449425 145.29598045 C37.50011966 149.31471065 37.53167801 153.33328874 37.5612793 157.35229492 C37.59148415 159.12502274 37.59148415 159.12502274 37.62229919 160.93356323 C37.65162005 168.44785883 36.74855802 173.84071027 33 180.4453125 C29.79088197 183.65443053 26.64219867 185.10034123 22.11328125 185.2109375 C21.18902344 185.18515625 20.26476562 185.159375 19.3125 185.1328125 C19.14234375 184.05644531 18.9721875 182.98007813 18.796875 181.87109375 C14.68175608 156.67287789 5.90099663 135.13907052 -14.7578125 119.19140625 C-36.01489824 104.25476067 -58.03519376 101.74611021 -83.5 102.1328125 C-87.08982953 102.18595298 -90.67945877 102.22580484 -94.26953125 102.2578125 C-95.08710403 102.27440918 -95.90467682 102.29100586 -96.74702454 102.30810547 C-98.72796855 102.32550229 -100.70929293 102.23835206 -102.6875 102.1328125 C-104.6875 100.1328125 -104.6875 100.1328125 -104.91796875 96.91015625 C-104.89669922 95.00943359 -104.89669922 95.00943359 -104.875 93.0703125 C-104.86855469 91.80058594 -104.86210938 90.53085938 -104.85546875 89.22265625 C-104.6875 86.1328125 -104.6875 86.1328125 -103.6875 85.1328125 C-101.97977642 85.04567419 -100.26851351 85.02581243 -98.55859375 85.03515625 C-97.00688477 85.03999023 -97.00688477 85.03999023 -95.42382812 85.04492188 C-94.33521484 85.05330078 -93.24660156 85.06167969 -92.125 85.0703125 C-90.4862793 85.07708008 -90.4862793 85.07708008 -88.81445312 85.08398438 C-86.10541505 85.09581424 -83.39648401 85.11229707 -80.6875 85.1328125 C-80.57019531 84.02292969 -80.45289062 82.91304688 -80.33203125 81.76953125 C-79.70063661 76.73938374 -78.57138689 71.86728229 -77.375 66.9453125 C-77.14989746 66.01912109 -76.92479492 65.09292969 -76.69287109 64.13867188 C-70.70956187 39.83227325 -60.67203169 21.24755076 -38.8828125 7.7734375 C-26.5339997 1.43297127 -13.7002561 -0.02966893 0 0 Z M-24.5 47.3203125 C-25.5828125 48.7125 -25.5828125 48.7125 -26.6875 50.1328125 C-27.16574219 50.67808594 -27.64398438 51.22335938 -28.13671875 51.78515625 C-35.83238691 61.5743563 -37.52967606 76.1666979 -39.6875 88.1328125 C-37.955 88.65875 -37.955 88.65875 -36.1875 89.1953125 C-31.51983015 90.75367604 -27.01398523 92.61981865 -22.5 94.5703125 C-21.48486328 95.00259155 -21.48486328 95.00259155 -20.44921875 95.44360352 C-17.21005927 96.86272057 -14.40920426 98.31845489 -11.44921875 100.29296875 C-8.6521654 102.37966664 -8.6521654 102.37966664 -4.6875 103.1328125 C-4.6875 82.6728125 -4.6875 62.2128125 -4.6875 41.1328125 C-12.19559859 41.1328125 -18.49592167 42.6504738 -24.5 47.3203125 Z " fill="#04A9FE" transform="translate(159.6875,27.8671875)"/>
<path d="M0 0 C1.00292587 -0.01929062 2.00585175 -0.03858124 3.03916931 -0.05845642 C7.70527611 -0.11652777 12.37122353 -0.16565641 17.03759766 -0.19628906 C19.47849853 -0.21767086 21.91932704 -0.25153027 24.35986328 -0.29882812 C45.55332962 -0.70564307 61.80123917 1.83614701 79.30688477 14.20874023 C80.5347168 15.05758789 80.5347168 15.05758789 81.78735352 15.92358398 C97.46389595 27.39093431 109.24907904 45.90189708 112.30688477 65.20874023 C112.73265169 69.20401827 113.05293987 73.19908396 113.30688477 77.20874023 C109.62734873 79.66176426 107.62491011 79.50765019 103.24438477 79.52124023 C101.9952832 79.53799805 100.74618164 79.55475586 99.45922852 79.57202148 C98.41895508 79.45213867 97.37868164 79.33225586 96.30688477 79.20874023 C94.16840606 76.00102217 94.07459258 75.03316581 93.93188477 71.33374023 C93.1029567 60.71222131 89.85451678 51.6027019 83.30688477 43.20874023 C82.13125977 41.66186523 82.13125977 41.66186523 80.93188477 40.08374023 C72.02350466 30.32694298 61.86309219 25.16877488 49.30688477 21.20874023 C49.20891602 22.26319336 49.11094727 23.31764648 49.01000977 24.40405273 C48.25177714 30.43014629 46.62957444 36.22798079 45.05688477 42.08374023 C44.76942383 43.20393555 44.48196289 44.32413086 44.18579102 45.47827148 C40.35597145 59.81082767 33.8689573 71.88290772 20.89282227 79.89624023 C8.33635091 86.26931331 -2.8611153 87.39850853 -16.69311523 87.20874023 C-17.92859349 83.50230547 -17.96375535 79.97773592 -18.07983398 76.11108398 C-18.10535843 75.32101456 -18.13088287 74.53094513 -18.15718079 73.7169342 C-18.20913597 72.04850621 -18.25856921 70.37999804 -18.30566406 68.71142578 C-18.38044343 66.15212016 -18.47103821 63.59367787 -18.56225586 61.03491211 C-18.61075446 59.41449822 -18.65831262 57.79405585 -18.70483398 56.17358398 C-18.74842293 55.0220005 -18.74842293 55.0220005 -18.79289246 53.84715271 C-18.83768265 51.96792133 -18.77457285 50.08673954 -18.69311523 48.20874023 C-16.69311523 46.20874023 -16.69311523 46.20874023 -14.77514648 46.11889648 C-14.02620117 46.16916992 -13.27725586 46.21944336 -12.50561523 46.27124023 C-7.71601478 46.3637929 -4.85205742 45.6209267 -0.69311523 43.20874023 C2.67664062 38.7961699 3.68825095 33.6878579 4.99438477 28.39624023 C5.21932617 27.51258789 5.44426758 26.62893555 5.67602539 25.71850586 C6.22686786 23.55029614 6.77023538 21.38049818 7.30688477 19.20874023 C6.37360352 19.09272461 5.44032227 18.97670898 4.47875977 18.85717773 C-0.64415311 17.80988274 -2.89171953 14.4108338 -5.69311523 10.20874023 C-5.92358398 7.98217773 -5.92358398 7.98217773 -5.88061523 5.58374023 C-5.87094727 4.3887793 -5.87094727 4.3887793 -5.86108398 3.16967773 C-5.53432364 -0.64505925 -3.33566006 0.05983885 0 0 Z " fill="#09A8FE" transform="translate(60.693115234375,134.791259765625)"/>
<path d="M0 0 C0.33 0 0.66 0 1 0 C1.60393168 3.01309393 2.04720005 5.92150792 2 9 C0.70513179 10.69672386 -0.63360658 12.3603279 -2 14 C-3.70510426 19.96320615 -4.12837078 25.83820267 -4 32 C-4.33 32.99 -4.66 33.98 -5 35 C-5.0825 35.94875 -5.165 36.8975 -5.25 37.875 C-6.21385076 41.89104484 -7.82949843 43.41935918 -11 46 C-15.70561298 47.7606035 -20.9570973 46.91627723 -25.8828125 46.7421875 C-26.91148438 46.82726562 -27.94015625 46.91234375 -29 47 C-31.29013653 50.4352048 -31.17842973 51.985331 -31 56 C-30.31228516 55.67475342 -29.62457031 55.34950684 -28.91601562 55.0144043 C-25.55333234 53.8446162 -22.90023148 53.75690029 -19.34375 53.76953125 C-18.07402344 53.77146484 -16.80429688 53.77339844 -15.49609375 53.77539062 C-13.51802734 53.79375977 -13.51802734 53.79375977 -11.5 53.8125 C-9.52193359 53.8134668 -9.52193359 53.8134668 -7.50390625 53.81445312 C3.16011787 53.86317202 3.16011787 53.86317202 8 55 C8 55.66 8 56.32 8 57 C8.825 56.67 9.65 56.34 10.5 56 C14.70029613 54.79991539 17.64394566 54.64294637 22 55 C23.6875 56.4375 23.6875 56.4375 25 58 C27.60611077 58.72197162 27.60611077 58.72197162 30 59 C30 59.66 30 60.32 30 61 C31.8871875 60.8453125 31.8871875 60.8453125 33.8125 60.6875 C36.01953125 60.66796875 36.01953125 60.66796875 38 61 C40 63.5 40 63.5 41 66 C40.36835938 65.81824219 39.73671875 65.63648438 39.0859375 65.44921875 C25.66132924 61.67717464 12.51209568 58.77953358 -1.4609375 58.97265625 C-3.24869611 58.98528508 -5.03645661 58.99764728 -6.82421875 59.00976562 C-9.61578421 59.03471237 -12.40724892 59.06288199 -15.19873047 59.09594727 C-17.91113961 59.1260115 -20.6234158 59.1438644 -23.3359375 59.16015625 C-24.17546967 59.17361588 -25.01500183 59.1870755 -25.87997437 59.20094299 C-27.92106283 59.20984313 -29.96208361 59.11409694 -32 59 C-34 57 -34 57 -34.23046875 53.77734375 C-34.20919922 51.87662109 -34.20919922 51.87662109 -34.1875 49.9375 C-34.18105469 48.66777344 -34.17460938 47.39804688 -34.16796875 46.08984375 C-34 43 -34 43 -33 42 C-31.29227642 41.91286169 -29.58101351 41.89299993 -27.87109375 41.90234375 C-26.83662109 41.90556641 -25.80214844 41.90878906 -24.73632812 41.91210938 C-23.64771484 41.92048828 -22.55910156 41.92886719 -21.4375 41.9375 C-19.7987793 41.94426758 -19.7987793 41.94426758 -18.12695312 41.95117188 C-15.41791505 41.96300174 -12.70898401 41.97948457 -10 42 C-9.88269531 40.89011719 -9.76539062 39.78023437 -9.64453125 38.63671875 C-9.01310879 33.6063496 -7.88229291 28.73501085 -6.6875 23.8125 C-6.46747314 22.89573486 -6.24744629 21.97896973 -6.02075195 21.03442383 C-4.28799749 13.92781853 -2.30611593 6.94411445 0 0 Z " fill="#1BA6FF" transform="translate(89,71)"/>
<path d="M0 0 C0.98371582 -0.00095673 1.96743164 -0.00191345 2.98095703 -0.00289917 C5.04150456 -0.00357515 7.1020543 -0.0017618 9.16259766 0.00244141 C12.33110232 0.00784422 15.49946818 0.00245325 18.66796875 -0.00390625 C20.67447948 -0.00324627 22.68099012 -0.00196676 24.6875 0 C25.63842529 -0.00202423 26.58935059 -0.00404846 27.5690918 -0.00613403 C28.44090088 -0.00298187 29.31270996 0.00017029 30.2109375 0.00341797 C30.98099121 0.00421356 31.75104492 0.00500916 32.54443359 0.00582886 C34.3125 0.1328125 34.3125 0.1328125 35.3125 1.1328125 C36.44283131 7.81797465 36.41385029 14.38841493 36.35473633 21.15356445 C36.34424134 23.58305291 36.33523741 26.01254817 36.32754517 28.44204712 C36.32126287 30.33807364 36.32126287 30.33807364 36.31485367 32.27240372 C36.31097174 38.63941339 36.3796744 45.00529107 36.4519043 51.37182617 C36.46653119 52.6853925 36.48115808 53.99895884 36.49622822 55.35233021 C36.5190917 57.39392161 36.54212783 59.43551061 36.56555134 61.47709566 C36.62342348 66.53150797 36.67595507 71.58595703 36.72554016 76.64045715 C36.7365083 77.75792927 36.7365083 77.75792927 36.74769801 78.89797658 C36.77752318 81.94725262 36.80717265 84.99653034 36.83671319 88.04580915 C36.91994569 96.61780989 37.00840452 105.18968856 37.11157227 113.76147461 C37.19444634 120.65015831 37.26645541 127.53885907 37.32573253 134.4277876 C37.35730755 138.05066799 37.39423275 141.67330713 37.44449425 145.29598045 C37.50011966 149.31471065 37.53167801 153.33328874 37.5612793 157.35229492 C37.59148415 159.12502274 37.59148415 159.12502274 37.62229919 160.93356323 C37.64757757 167.41185834 37.04724406 172.23533981 34.3125 178.1328125 C33.14249623 174.6228012 33.20606098 171.90973322 33.23020935 168.20429993 C33.23343848 167.49528209 33.23666761 166.78626426 33.23999459 166.05576104 C33.25208167 163.67424531 33.27145202 161.29284419 33.29077148 158.91137695 C33.300913 157.20652517 33.31060681 155.50167067 33.31988525 153.79681396 C33.34637896 149.16280458 33.3791559 144.52885818 33.41303515 139.8948977 C33.44736558 135.05423697 33.47595329 130.21354248 33.50514221 125.37284851 C33.56130783 116.20372502 33.62266091 107.03464382 33.68586355 97.86556643 C33.75755844 87.42799355 33.8234919 76.99038679 33.88893402 66.55277312 C34.02369795 45.07940738 34.16648174 23.60610487 34.3125 2.1328125 C16.4925 2.1328125 -1.3275 2.1328125 -19.6875 2.1328125 C-19.6875 1.8028125 -19.6875 1.4728125 -19.6875 1.1328125 C-13.08582963 0.28573273 -6.65183743 -0.01440505 0 0 Z " fill="#A1D8FD" transform="translate(159.6875,27.8671875)"/>
<path d="M0 0 C0.78503906 -0.01675781 1.57007813 -0.03351563 2.37890625 -0.05078125 C3.39791016 0.12904297 3.39791016 0.12904297 4.4375 0.3125 C6.55022175 3.48158263 6.68681437 4.23250451 6.68041992 7.85302734 C6.68349655 8.77183685 6.68657318 9.69064636 6.68974304 10.63729858 C6.68255753 11.63097443 6.67537201 12.62465027 6.66796875 13.6484375 C6.66728142 15.19393784 6.66728142 15.19393784 6.6665802 16.7706604 C6.66355568 18.95795844 6.65566345 21.14525428 6.64331055 23.33251953 C6.62526072 26.63972847 6.62279959 29.94665359 6.62304688 33.25390625 C6.60504531 43.64582825 6.54691148 53.96905715 5.4375 64.3125 C3.5625 64.9375 3.5625 64.9375 1.4375 65.3125 C0.7775 64.6525 0.1175 63.9925 -0.5625 63.3125 C0.4275 63.3125 1.4175 63.3125 2.4375 63.3125 C2.4375 42.8525 2.4375 22.3925 2.4375 1.3125 C-0.8625 1.6425 -4.1625 1.9725 -7.5625 2.3125 C-4.45212372 0.23891581 -3.56688748 0.01762877 0 0 Z " fill="#4DB9FE" transform="translate(152.5625,67.6875)"/>
<path d="M0 0 C-0.69867188 0.25394531 -1.39734375 0.50789063 -2.1171875 0.76953125 C-3.02726562 1.11371094 -3.93734375 1.45789062 -4.875 1.8125 C-5.77992188 2.14894531 -6.68484375 2.48539063 -7.6171875 2.83203125 C-10.29425849 3.89649024 -10.29425849 3.89649024 -12 7 C-13.051875 7.226875 -14.10375 7.45375 -15.1875 7.6875 C-19.42922179 8.78045899 -21.16817874 11.12135517 -23.84765625 14.45703125 C-26.5689443 17.67220098 -29.54935074 20.56092029 -32.5625 23.5 C-36.23022667 27.09762288 -39.67256367 30.63168928 -42.6875 34.8125 C-43.450625 35.864375 -44.21375 36.91625 -45 38 C-45.66 38 -46.32 38 -47 38 C-47 38.66 -47 39.32 -47 40 C-47.66 40 -48.32 40 -49 40 C-43.84815157 23.11475515 -30.1259005 11.1175666 -15 3 C-4.50222662 -1.50074221 -4.50222662 -1.50074221 0 0 Z " fill="#19A6FF" transform="translate(139,31)"/>
<path d="M0 0 C1.73916251 5.21748752 -0.70934041 10.38221341 -2.125 15.5625 C-2.42148438 16.70525391 -2.71796875 17.84800781 -3.0234375 19.02539062 C-5.59736199 28.56308964 -8.72416362 37.17406051 -15.5625 44.5 C-16.30628906 45.3146875 -17.05007812 46.129375 -17.81640625 46.96875 C-19.8286047 48.84056252 -21.48263116 49.94966924 -24 51 C-24 50.34 -24 49.68 -24 49 C-23.34 49 -22.68 49 -22 49 C-22 47.68 -22 46.36 -22 45 C-21.34 45 -20.68 45 -20 45 C-19.731875 44.46375 -19.46375 43.9275 -19.1875 43.375 C-18.795625 42.59125 -18.40375 41.8075 -18 41 C-17.54625 40.05125 -17.0925 39.1025 -16.625 38.125 C-14.9460108 34.89617462 -13.16156543 31.92857252 -11 29 C-10.34 29 -9.68 29 -9 29 C-8.96261719 28.29617187 -8.92523438 27.59234375 -8.88671875 26.8671875 C-8.34352412 18.70861723 -6.87048406 10.95249828 -5 3 C-4.01 3.33 -3.02 3.66 -2 4 C-1.34 2.68 -0.68 1.36 0 0 Z " fill="#2FABFF" transform="translate(108,161)"/>
<path d="M0 0 C0 3.35707745 -0.46791377 3.96210303 -2.33203125 6.60546875 C-5.17739002 10.99737078 -6.48860969 15.25399276 -7.6875 20.3125 C-7.89463623 21.14048096 -8.10177246 21.96846191 -8.31518555 22.8215332 C-9.7940549 28.83513188 -11.07766494 34.87404329 -12 41 C-12.99 41 -13.98 41 -15 41 C-15 40.34 -15 39.68 -15 39 C-15.66 39 -16.32 39 -17 39 C-16.125 31.125 -16.125 31.125 -15 30 C-14.34073678 26.94478589 -13.76003924 23.88381067 -13.19335938 20.81054688 C-10.99080364 9.24998233 -10.99080364 9.24998233 -6 5.25 C-5.29875 4.67765625 -4.5975 4.1053125 -3.875 3.515625 C-2.946875 2.76539062 -2.946875 2.76539062 -2 2 C-1.34 1.34 -0.68 0.68 0 0 Z " fill="#1FA9FF" transform="translate(133,76)"/>
<path d="M0 0 C1.31291016 -0.03867188 1.31291016 -0.03867188 2.65234375 -0.078125 C5.53555963 0.31440358 6.18256347 1.12556305 8.0625 3.25 C10.66861077 3.97197162 10.66861077 3.97197162 13.0625 4.25 C13.0625 4.91 13.0625 5.57 13.0625 6.25 C14.320625 6.146875 15.57875 6.04375 16.875 5.9375 C19.08203125 5.91796875 19.08203125 5.91796875 21.0625 6.25 C23.0625 8.75 23.0625 8.75 24.0625 11.25 C23.11503906 10.97736328 23.11503906 10.97736328 22.1484375 10.69921875 C8.70217938 6.92109147 -4.47686585 4.06571847 -18.46875 4.15234375 C-19.34527222 4.1537587 -20.22179443 4.15517365 -21.12487793 4.15663147 C-23.89578821 4.16218232 -26.66661457 4.17472539 -29.4375 4.1875 C-31.32812382 4.19252136 -33.21874893 4.19708315 -35.109375 4.20117188 C-39.71878183 4.2121356 -44.32812673 4.22936575 -48.9375 4.25 C-49.2675 3.59 -49.5975 2.93 -49.9375 2.25 C-48.64537598 2.22494385 -47.35325195 2.1998877 -46.02197266 2.17407227 C-41.23980344 2.08008376 -36.45778238 1.97984234 -31.67578125 1.87768555 C-29.60387634 1.83430423 -27.53193493 1.79263154 -25.45996094 1.75268555 C-22.48621609 1.69506035 -19.51265552 1.63134375 -16.5390625 1.56640625 C-15.14368759 1.54133751 -15.14368759 1.54133751 -13.72012329 1.51576233 C-12.85938202 1.49581711 -11.99864075 1.47587189 -11.11181641 1.45532227 C-9.97264267 1.43200584 -9.97264267 1.43200584 -8.81045532 1.40821838 C-5.7150773 1.14673553 -3.27511479 0.05771127 0 0 Z " fill="#1FA9FF" transform="translate(105.9375,125.75)"/>
<path d="M0 0 C0.33 0 0.66 0 1 0 C1.27868395 1.39039057 1.52168931 2.78795546 1.75 4.1875 C1.88921875 4.96480469 2.0284375 5.74210937 2.171875 6.54296875 C2 9 2 9 0.14453125 11.26171875 C-2.68980259 14.88078619 -3.22566065 18.17839266 -4.0625 22.625 C-4.39128719 24.23086758 -4.72201505 25.83633904 -5.0546875 27.44140625 C-5.21291992 28.21887207 -5.37115234 28.99633789 -5.53417969 29.79736328 C-8.14562834 42.14562834 -8.14562834 42.14562834 -10 44 C-11.70772358 44.08713831 -13.41898649 44.10700007 -15.12890625 44.09765625 C-16.68061523 44.09282227 -16.68061523 44.09282227 -18.26367188 44.08789062 C-19.35228516 44.07951172 -20.44089844 44.07113281 -21.5625 44.0625 C-23.2012207 44.05573242 -23.2012207 44.05573242 -24.87304688 44.04882812 C-27.58205432 44.0369984 -30.2910338 44.01906231 -33 44 C-33 48.29 -33 52.58 -33 57 C-33.33 57 -33.66 57 -34 57 C-34.02685412 54.68756208 -34.04632841 52.3750373 -34.0625 50.0625 C-34.07410156 48.77472656 -34.08570313 47.48695312 -34.09765625 46.16015625 C-34 43 -34 43 -33 42 C-31.29227642 41.91286169 -29.58101351 41.89299993 -27.87109375 41.90234375 C-26.83662109 41.90556641 -25.80214844 41.90878906 -24.73632812 41.91210938 C-23.64771484 41.92048828 -22.55910156 41.92886719 -21.4375 41.9375 C-19.7987793 41.94426758 -19.7987793 41.94426758 -18.12695312 41.95117188 C-15.41791505 41.96300174 -12.70898401 41.97948457 -10 42 C-9.88269531 40.89011719 -9.76539062 39.78023437 -9.64453125 38.63671875 C-9.01310879 33.6063496 -7.88229291 28.73501085 -6.6875 23.8125 C-6.46747314 22.89573486 -6.24744629 21.97896973 -6.02075195 21.03442383 C-4.28799749 13.92781853 -2.30611593 6.94411445 0 0 Z " fill="#BCDFFC" transform="translate(89,71)"/>
<path d="M0 0 C1.66328702 5.07390236 -0.01892264 9.52596526 -1.25 14.5625 C-1.46785156 15.52091797 -1.68570313 16.47933594 -1.91015625 17.46679688 C-2.13058594 18.38654297 -2.35101563 19.30628906 -2.578125 20.25390625 C-2.87831543 21.51182983 -2.87831543 21.51182983 -3.18457031 22.79516602 C-4.09193684 25.24858732 -4.94445976 26.40135087 -7 28 C-12.77756839 29.29700515 -17.94327882 29 -24 29 C-24 40.88 -24 52.76 -24 65 C-24.33 65 -24.66 65 -25 65 C-25.1921167 59.91004659 -25.3708613 54.81986803 -25.53710938 49.72900391 C-25.59558661 47.99645329 -25.65774663 46.26402297 -25.72363281 44.53173828 C-25.81758626 42.04481912 -25.89838011 39.55777111 -25.9765625 37.0703125 C-26.00875885 36.29317902 -26.0409552 35.51604553 -26.0741272 34.71536255 C-26.12744129 32.81082754 -26.07291252 30.90388544 -26 29 C-24 27 -24 27 -22.08203125 26.91015625 C-21.33308594 26.96042969 -20.58414063 27.01070312 -19.8125 27.0625 C-15.02289955 27.15505267 -12.15894218 26.41218647 -8 24 C-4.63024414 19.58742967 -3.61863382 14.47911766 -2.3125 9.1875 C-2.08755859 8.30384766 -1.86261719 7.42019531 -1.63085938 6.50976562 C-1.0800169 4.3415559 -0.53664938 2.17175794 0 0 Z " fill="#C8E5FC" transform="translate(68,154)"/>
<path d="M0 0 C1.54796265 -0.01441132 1.54796265 -0.01441132 3.12719727 -0.02911377 C4.25311279 -0.03336365 5.37902832 -0.03761353 6.5390625 -0.04199219 C7.69269287 -0.04769226 8.84632324 -0.05339233 10.03491211 -0.05926514 C12.48631874 -0.06873689 14.93773824 -0.0752577 17.38916016 -0.07910156 C21.12034847 -0.0887541 24.85097364 -0.11973549 28.58203125 -0.15136719 C30.9635384 -0.1579023 33.34504949 -0.16315077 35.7265625 -0.16699219 C37.39114502 -0.18551239 37.39114502 -0.18551239 39.08935547 -0.20440674 C45.6663153 -0.18573643 51.08427367 0.60171908 57.1640625 3.16113281 C53.8746975 4.25758781 52.92925174 4.04490301 49.66650391 3.24951172 C44.11930049 2.05421772 38.78521665 1.81556355 33.125 1.74707031 C32.11813141 1.72770416 31.11126282 1.70833801 30.07388306 1.68838501 C26.89569248 1.62917673 23.7174645 1.5824413 20.5390625 1.53613281 C18.36847483 1.49789885 16.19790146 1.45884407 14.02734375 1.41894531 C8.73971135 1.32352451 3.451991 1.23830991 -1.8359375 1.16113281 C-1.893173 6.94760601 -1.893173 6.94760601 -0.8359375 12.59863281 C-0.5059375 13.77425781 -0.1759375 14.94988281 0.1640625 16.16113281 C-2.8359375 15.16113281 -2.8359375 15.16113281 -4.5234375 13.16113281 C-6.2785635 9.14941623 -6.30091637 5.48901309 -5.8359375 1.16113281 C-4.18810836 -0.48669633 -2.2698668 0.01699092 0 0 Z " fill="#93CDFE" transform="translate(60.8359375,134.8388671875)"/>
<path d="M0 0 C0.33 0 0.66 0 1 0 C1 1.98 1 3.96 1 6 C2.03157227 5.51213013 2.03157227 5.51213013 3.08398438 5.0144043 C6.44666766 3.8446162 9.09976852 3.75690029 12.65625 3.76953125 C13.92597656 3.77146484 15.19570312 3.77339844 16.50390625 3.77539062 C18.48197266 3.79375977 18.48197266 3.79375977 20.5 3.8125 C22.47806641 3.8134668 22.47806641 3.8134668 24.49609375 3.81445312 C35.16011787 3.86317202 35.16011787 3.86317202 40 5 C40 5.66 40 6.32 40 7 C26.8 7 13.6 7 0 7 C0 4.69 0 2.38 0 0 Z " fill="#16A3FF" transform="translate(57,121)"/>
<path d="M0 0 C0.99 0.33 1.98 0.66 3 1 C3.50612064 3.8740422 4.00506541 6.74902873 4.5 9.625 C4.64308594 10.43324219 4.78617188 11.24148437 4.93359375 12.07421875 C5.06894531 12.86699219 5.20429688 13.65976563 5.34375 14.4765625 C5.46943359 15.19924316 5.59511719 15.92192383 5.72460938 16.66650391 C6.05035721 19.42669698 6 22.22065161 6 25 C10.95 25 15.9 25 21 25 C21 21.04 21 17.08 21 13 C21.33 13 21.66 13 22 13 C22.33 16.96 22.66 20.92 23 25 C19.32046396 27.45302403 17.31802535 27.29890995 12.9375 27.3125 C11.06384766 27.33763672 11.06384766 27.33763672 9.15234375 27.36328125 C8.11207031 27.24339844 7.07179687 27.12351563 6 27 C3.84559454 23.7683918 3.73890499 22.62761519 3.5625 18.875 C3.22893096 14.21121071 2.31831042 10.31720609 0.62109375 5.97265625 C0 4 0 4 0 0 Z " fill="#B7DFFD" transform="translate(151,187)"/>
<path d="M0 0 C6.4412349 -0.02540728 12.88245681 -0.04289098 19.32373047 -0.05493164 C21.51383955 -0.0599526 23.70394529 -0.06677066 25.89404297 -0.07543945 C29.04655788 -0.08760304 32.19902836 -0.09325077 35.3515625 -0.09765625 C36.8144017 -0.10539818 36.8144017 -0.10539818 38.30679321 -0.11329651 C42.98880819 -0.11368069 47.39501684 0.02573929 52 1 C52 1.33 52 1.66 52 2 C51.42006287 1.99555878 50.84012573 1.99111755 50.24261475 1.98654175 C44.20815494 1.94230431 38.17374118 1.91213184 32.13916016 1.89013672 C29.88686248 1.88007747 27.63457786 1.86642854 25.38232422 1.84912109 C22.14547502 1.82486969 18.90879845 1.8135161 15.671875 1.8046875 C14.16074127 1.78920364 14.16074127 1.78920364 12.61907959 1.77340698 C11.67840637 1.77325592 10.73773315 1.77310486 9.76855469 1.77294922 C8.52945343 1.76628738 8.52945343 1.76628738 7.26531982 1.75949097 C4.70918141 2.03087621 3.15872041 2.61363172 1 4 C0.34 4.99 -0.32 5.98 -1 7 C-0.67 4.69 -0.34 2.38 0 0 Z " fill="#18A2FF" transform="translate(59,136)"/>
<path d="M0 0 C-11.22839238 9.91735598 -25.84399522 10.19421348 -40 10 C-40 9.34 -40 8.68 -40 8 C-38.99582031 7.96261719 -37.99164063 7.92523438 -36.95703125 7.88671875 C-28.21363 7.4936845 -19.2885504 7.05918106 -11 4 C-10.34 3.01 -9.68 2.02 -9 1 C-5.8035914 -0.06546953 -3.34252724 -0.07427838 0 0 Z " fill="#A5D8FD" transform="translate(84,212)"/>
<path d="M0 0 C2.10639727 0.0381913 4.21158302 0.15592443 6.3125 0.3125 C7.46363281 0.39113281 8.61476563 0.46976563 9.80078125 0.55078125 C12.70193572 0.95814726 14.52284914 1.50147664 17 3 C17 3.66 17 4.32 17 5 C17.66 5.33 18.32 5.66 19 6 C20.125 8.0625 20.125 8.0625 21 10 C16.55722452 8.63299216 12.41459077 6.86820698 8.19140625 4.953125 C5.51350184 3.78840365 2.78992415 2.8584382 0 2 C-0.33 3.32 -0.66 4.64 -1 6 C-1.042721 4.33388095 -1.04063832 2.66617115 -1 1 C-0.67 0.67 -0.34 0.34 0 0 Z " fill="#1FA8FF" transform="translate(110,154)"/>
<path d="M0 0 C1.17632556 3.52897669 0.74268202 4.78723579 -0.21484375 8.32421875 C-0.48876953 9.35224609 -0.76269531 10.38027344 -1.04492188 11.43945312 C-1.33947266 12.51130859 -1.63402344 13.58316406 -1.9375 14.6875 C-2.22818359 15.77095703 -2.51886719 16.85441406 -2.81835938 17.97070312 C-3.5381418 20.64923773 -4.26562605 23.32543603 -5 26 C-5.33 26 -5.66 26 -6 26 C-6.937402 17.91807467 -7.15408416 10.88644034 -5 3 C-4.01 3.33 -3.02 3.66 -2 4 C-1.34 2.68 -0.68 1.36 0 0 Z " fill="#56BAFE" transform="translate(108,161)"/>
<path d="M0 0 C18.15 0 36.3 0 55 0 C55.495 1.485 55.495 1.485 56 3 C55.16009521 2.9285376 54.32019043 2.8570752 53.45483398 2.78344727 C42.3145975 1.9293749 31.23065529 1.88429441 20.0625 1.9375 C18.20377726 1.94253015 16.34505319 1.94709035 14.48632812 1.95117188 C9.99085168 1.96204565 5.49544113 1.97922477 1 2 C0.67 1.34 0.34 0.68 0 0 Z " fill="#83C6FE" transform="translate(56,128)"/>
<path d="M0 0 C0 0.66 0 1.32 0 2 C-1.11375 2.12375 -2.2275 2.2475 -3.375 2.375 C-7.03103677 2.6465813 -7.03103677 2.6465813 -9 5 C-9.04092937 7.33297433 -9.04241723 9.66705225 -9 12 C-9.33 12.33 -9.66 12.66 -10 13 C-10.15786308 14.85174706 -10.25107356 16.7090911 -10.31640625 18.56640625 C-10.35830078 19.69111328 -10.40019531 20.81582031 -10.44335938 21.97460938 C-10.48267578 23.15861328 -10.52199219 24.34261719 -10.5625 25.5625 C-10.60568359 26.75037109 -10.64886719 27.93824219 -10.69335938 29.16210938 C-10.79983546 32.10794784 -10.90184841 35.0538743 -11 38 C-11.33 38 -11.66 38 -12 38 C-12 25.79 -12 13.58 -12 1 C-2 0 -2 0 0 0 Z " fill="#2EA9FF" transform="translate(56,182)"/>
<path d="M0 0 C0 3.35614381 -0.45425852 3.93047517 -2.32421875 6.5625 C-5.30214349 11.15070998 -6.57431351 15.71436456 -7.8125 21 C-8.02841797 21.87011719 -8.24433594 22.74023438 -8.46679688 23.63671875 C-8.99048165 25.75473272 -9.49706297 27.87696367 -10 30 C-10.33 30 -10.66 30 -11 30 C-10.91256271 27.12361482 -10.8056265 24.25015438 -10.6875 21.375 C-10.65366211 20.16263672 -10.65366211 20.16263672 -10.61914062 18.92578125 C-10.35442358 13.00574557 -9.43648713 8.53561616 -5.17578125 4.1015625 C-4.56089844 3.61429687 -3.94601563 3.12703125 -3.3125 2.625 C-2.68988281 2.12226562 -2.06726563 1.61953125 -1.42578125 1.1015625 C-0.95527344 0.73804687 -0.48476562 0.37453125 0 0 Z " fill="#90D0FD" transform="translate(133,76)"/>
<path d="M0 0 C0 0.66 0 1.32 0 2 C-3.63 2.33 -7.26 2.66 -11 3 C-11 3.66 -11 4.32 -11 5 C-12.269553 5.64834654 -13.54069706 6.29357815 -14.8125 6.9375 C-15.52019531 7.29714844 -16.22789062 7.65679687 -16.95703125 8.02734375 C-19 9 -19 9 -22 10 C-22.33 9.01 -22.66 8.02 -23 7 C-15.51847471 0.65696769 -9.87217071 -0.25313258 0 0 Z " fill="#27ADFF" transform="translate(156,66)"/>
<path d="M0 0 C4.68541372 0.60069407 7.68813416 1.68813416 11 5 C11.99 5.33 12.98 5.66 14 6 C14 6.99 14 7.98 14 9 C15.9375006 11.18777466 15.9375006 11.18777466 18 13 C14.26070196 13 13.22267273 11.94719289 10.25 9.75 C6.27508054 6.87663447 2.30647331 4.34047463 -2 2 C-1.34 1.34 -0.68 0.68 0 0 Z " fill="#61BFFE" transform="translate(132,136)"/>
<path d="M0 0 C-0.69867188 0.25394531 -1.39734375 0.50789063 -2.1171875 0.76953125 C-3.02726562 1.11371094 -3.93734375 1.45789062 -4.875 1.8125 C-5.77992188 2.14894531 -6.68484375 2.48539063 -7.6171875 2.83203125 C-10.29425849 3.89649024 -10.29425849 3.89649024 -12 7 C-14.05859375 7.73046875 -14.05859375 7.73046875 -16.4375 8.1875 C-17.21996094 8.34605469 -18.00242187 8.50460938 -18.80859375 8.66796875 C-21 9 -21 9 -24 9 C-17.75021651 4.26531553 -8.06397737 -2.68799246 0 0 Z " fill="#94D1FD" transform="translate(139,31)"/>
<path d="M0 0 C0.66 0.33 1.32 0.66 2 1 C-0.18719212 7.44006568 -0.18719212 7.44006568 -3.8125 9.9375 C-7.09352665 11.03117555 -9.56791303 11.24514907 -13 11 C-12.67 10.01 -12.34 9.02 -12 8 C-12 8.66 -12 9.32 -12 10 C-10.68 10 -9.36 10 -8 10 C-7.90847656 9.40703125 -7.81695312 8.8140625 -7.72265625 8.203125 C-6.82767887 5.47465343 -5.66093699 4.52874959 -3.4375 2.75 C-2.79683594 2.22921875 -2.15617188 1.7084375 -1.49609375 1.171875 C-1.00238281 0.78515625 -0.50867188 0.3984375 0 0 Z " fill="#61C0FE" transform="translate(192,202)"/>
<path d="M0 0 C2.31 0 4.62 0 7 0 C6.38125 0.165 5.7625 0.33 5.125 0.5 C2.17687094 2.58103228 2.19453902 4.60138322 1.50390625 8.0234375 C0.87079099 10.50681983 -0.27966897 12.12327524 -2 14 C-3.32854177 8.0819503 -2.66464729 5.22270869 0 0 Z " fill="#2C9CFF" transform="translate(107,153)"/>
<path d="M0 0 C1.32 0 2.64 0 4 0 C3.95875 0.99 3.9175 1.98 3.875 3 C3.8576652 7.23835866 4.85808838 10.93193985 6 15 C3 14 3 14 1.3125 12 C-0.46517964 7.93673224 -0.25700142 4.36902407 0 0 Z " fill="#82C7FD" transform="translate(55,136)"/>
<path d="M0 0 C6.93 0 13.86 0 21 0 C21 0.33 21 0.66 21 1 C19.87980469 1.03738281 18.75960937 1.07476562 17.60546875 1.11328125 C16.1327791 1.17894257 14.66012434 1.24538986 13.1875 1.3125 C12.44951172 1.33505859 11.71152344 1.35761719 10.95117188 1.38085938 C6.76979561 1.57342024 6.76979561 1.57342024 3.03125 3.28125 C1.80646356 5.32256073 1.50648226 6.82091637 1.3125 9.1875 C1.209375 10.445625 1.10625 11.70375 1 13 C0.67 13 0.34 13 0 13 C0 8.71 0 4.42 0 0 Z " fill="#2FA8FF" transform="translate(56,115)"/>
<path d="M0 0 C1.32 0 2.64 0 4 0 C2.60249952 3.15835107 0.94801766 5.32272825 -1.5 7.75 C-2.41265625 8.67039063 -2.41265625 8.67039063 -3.34375 9.609375 C-5 11 -5 11 -7 11 C-7 10.34 -7 9.68 -7 9 C-6.34 9 -5.68 9 -5 9 C-5 7.68 -5 6.36 -5 5 C-4.34 5 -3.68 5 -3 5 C-2.690625 4.360625 -2.38125 3.72125 -2.0625 3.0625 C-1 1 -1 1 0 0 Z " fill="#75C5FD" transform="translate(91,201)"/>
<path d="M0 0 C2.44116625 0.03302931 4.87318511 0.10014162 7.3125 0.1875 C8.00279297 0.19330078 8.69308594 0.19910156 9.40429688 0.20507812 C11.42578125 0.29296875 11.42578125 0.29296875 15 1 C16.98046875 3.55078125 16.98046875 3.55078125 18 6 C11.98922864 4.36959185 5.98336072 2.72852643 0 1 C0 0.67 0 0.34 0 0 Z " fill="#7ECAFE" transform="translate(112,131)"/>
<path d="M0 0 C0.88336837 2.4667645 1.1312406 3.63859372 0.22265625 6.140625 C-0.16019531 6.83671875 -0.54304688 7.5328125 -0.9375 8.25 C-1.31777344 8.95640625 -1.69804688 9.6628125 -2.08984375 10.390625 C-2.39019531 10.92171875 -2.69054687 11.4528125 -3 12 C-3.66 12 -4.32 12 -5 12 C-5 12.66 -5 13.32 -5 14 C-5.66 14 -6.32 14 -7 14 C-5.53967505 8.68972746 -3.01679014 4.53669968 0 0 Z " fill="#7EC7FD" transform="translate(97,57)"/>
<path d="M0 0 C0.66 0.33 1.32 0.66 2 1 C-0.17133203 4.25699804 -1.70917276 5.02550365 -5 7 C-6.64760066 8.51663081 -8.25248462 10.08091699 -9.8125 11.6875 C-10.99779297 12.89986328 -10.99779297 12.89986328 -12.20703125 14.13671875 C-12.79871094 14.75160156 -13.39039062 15.36648437 -14 16 C-14 13 -14 13 -11.69921875 10.37109375 C-10.7029415 9.38545764 -9.6986627 8.40785916 -8.6875 7.4375 C-8.18798828 6.94314453 -7.68847656 6.44878906 -7.17382812 5.93945312 C-4.87916575 3.69341936 -2.67939362 1.78626241 0 0 Z " fill="#B3DCFC" transform="translate(113,41)"/>
<path d="M0 0 C3.87051275 3.07881696 7.02911382 6.00073014 10 10 C9.67 10.66 9.34 11.32 9 12 C6.5 10.6875 6.5 10.6875 4 9 C4 8.01 4 7.02 4 6 C3.01 5.67 2.02 5.34 1 5 C0.67 3.35 0.34 1.7 0 0 Z " fill="#6EC3FE" transform="translate(148,156)"/>
<path d="M0 0 C2 1 2 1 3.125 3.5 C4.1889199 7.7556796 4.17434209 11.64144777 4 16 C3.34 16 2.68 16 2 16 C1.34 10.72 0.68 5.44 0 0 Z " fill="#25A8FF" transform="translate(155,196)"/>
<path d="M0 0 C1.23922223 3.71766668 0.57018942 5.43889537 -0.4375 9.1875 C-0.72496094 10.27417969 -1.01242188 11.36085937 -1.30859375 12.48046875 C-1.65083984 13.72763672 -1.65083984 13.72763672 -2 15 C-2.33 15 -2.66 15 -3 15 C-3.08107583 13.06318839 -3.13922475 11.1254066 -3.1875 9.1875 C-3.22230469 8.10855469 -3.25710937 7.02960938 -3.29296875 5.91796875 C-3 3 -3 3 -1.48828125 1.11328125 C-0.99714844 0.74589844 -0.50601563 0.37851563 0 0 Z " fill="#8FD0FD" transform="translate(105,172)"/>
<path d="M0 0 C1.4540625 0.0309375 1.4540625 0.0309375 2.9375 0.0625 C2.9375 0.7225 2.9375 1.3825 2.9375 2.0625 C3.576875 2.18625 4.21625 2.31 4.875 2.4375 C5.555625 2.64375 6.23625 2.85 6.9375 3.0625 C7.2675 3.7225 7.5975 4.3825 7.9375 5.0625 C4.3075 4.0725 0.6775 3.0825 -3.0625 2.0625 C-3.3925 3.3825 -3.7225 4.7025 -4.0625 6.0625 C-4.105221 4.39638095 -4.10313832 2.72867115 -4.0625 1.0625 C-3.0625 0.0625 -3.0625 0.0625 0 0 Z " fill="#98D2FD" transform="translate(113.0625,153.9375)"/>
<path d="M0 0 C0.66 0.33 1.32 0.66 2 1 C2 4.96 2 8.92 2 13 C1.34 13 0.68 13 0 13 C-0.19466332 11.20909747 -0.38051213 9.41723495 -0.5625 7.625 C-0.66691406 6.62726563 -0.77132812 5.62953125 -0.87890625 4.6015625 C-1 2 -1 2 0 0 Z " fill="#2AABFF" transform="translate(170,199)"/>
<path d="M0 0 C-2.92324707 1.94883138 -4.51083018 2.48079727 -7.875 3.125 C-8.71804687 3.29257813 -9.56109375 3.46015625 -10.4296875 3.6328125 C-12.99151915 3.99878845 -15.41609989 4.06482904 -18 4 C-15.25686894 2.17124596 -13.22925051 1.27962972 -10.125 0.3125 C-9.28195313 0.04050781 -8.43890625 -0.23148438 -7.5703125 -0.51171875 C-4.72316953 -1.05258938 -2.77903135 -0.7420711 0 0 Z " fill="#1AA7FF" transform="translate(73,216)"/>
<path d="M0 0 C0.66 0 1.32 0 2 0 C4.02558881 3.34939881 4.21738987 5.86962551 4.125 9.75 C4.10695312 10.73484375 4.08890625 11.7196875 4.0703125 12.734375 C4.03550781 13.85585937 4.03550781 13.85585937 4 15 C2.1866078 11.79989612 1.47786026 8.86716157 0.875 5.25 C0.70742187 4.26515625 0.53984375 3.2803125 0.3671875 2.265625 C0.24601563 1.51796875 0.12484375 0.7703125 0 0 Z " fill="#89CEFE" transform="translate(174,185)"/>
<path d="M0 0 C0.33 0.66 0.66 1.32 1 2 C0.07421875 4.34765625 0.07421875 4.34765625 -1.3125 7.0625 C-1.98732422 8.41021484 -1.98732422 8.41021484 -2.67578125 9.78515625 C-4 12 -4 12 -6 13 C-6 11.35 -6 9.7 -6 8 C-5.34 7.67 -4.68 7.34 -4 7 C-3.67 6.01 -3.34 5.02 -3 4 C-2.34 4 -1.68 4 -1 4 C-0.67 2.68 -0.34 1.36 0 0 Z " fill="#AAD9FD" transform="translate(101,188)"/>
<path d="M0 0 C-4.30769231 3.93846154 -4.30769231 3.93846154 -7.8125 4.25 C-8.534375 4.1675 -9.25625 4.085 -10 4 C-9.67 3.01 -9.34 2.02 -9 1 C-5.8035914 -0.06546953 -3.34252724 -0.07427838 0 0 Z " fill="#75C6FE" transform="translate(84,212)"/>
<path d="M0 0 C4.04420651 1.77945087 7.46078487 4.39529673 11 7 C7.38970831 7 4.44193324 6.03907418 1 5 C0.67 3.35 0.34 1.7 0 0 Z " fill="#79C7FE" transform="translate(137,148)"/>
<path d="M0 0 C0.33 0.99 0.66 1.98 1 3 C0.34 2.67 -0.32 2.34 -1 2 C-0.67 1.34 -0.34 0.68 0 0 Z M-4 3 C-3.01 3 -2.02 3 -1 3 C-1 4.32 -1 5.64 -1 7 C-1.66 7 -2.32 7 -3 7 C-3 7.66 -3 8.32 -3 9 C-3.99 9 -4.98 9 -6 9 C-5.34 7.02 -4.68 5.04 -4 3 Z " fill="#1FAAFF" transform="translate(87,203)"/>
<path d="M0 0 C2.64 0 5.28 0 8 0 C8 0.66 8 1.32 8 2 C8.66 2.33 9.32 2.66 10 3 C10 3.66 10 4.32 10 5 C6.08788267 3.84414715 3.1254959 2.64465038 0 0 Z " fill="#8BCEFD" transform="translate(121,159)"/>
<path d="M0 0 C0.33 1.32 0.66 2.64 1 4 C0.34 4 -0.32 4 -1 4 C-1 5.65 -1 7.3 -1 9 C-1.99 9 -2.98 9 -4 9 C-3.46930939 5.17902761 -2.50298434 2.93828597 0 0 Z " fill="#1FA9FF" transform="translate(96,192)"/>
<path d="M0 0 C0.33 0 0.66 0 1 0 C0.67 3.63 0.34 7.26 0 11 C-0.99 11 -1.98 11 -3 11 C-2.69078116 9.54096742 -2.37751201 8.08279278 -2.0625 6.625 C-1.88847656 5.81289062 -1.71445313 5.00078125 -1.53515625 4.1640625 C-1 2 -1 2 0 0 Z " fill="#ABDAFD" transform="translate(121,106)"/>
<path d="M0 0 C2.64 0.33 5.28 0.66 8 1 C8.33 1.99 8.66 2.98 9 4 C4.545 3.01 4.545 3.01 0 2 C0 1.34 0 0.68 0 0 Z " fill="#22A6FF" transform="translate(61,149)"/>
<path d="M0 0 C0.99 0 1.98 0 3 0 C1.55746343 3.36591866 -0.33264727 5.51047079 -3 8 C-3.66 7.67 -4.32 7.34 -5 7 C-4.34 6.01 -3.68 5.02 -3 4 C-2.34 4 -1.68 4 -1 4 C-0.67 2.68 -0.34 1.36 0 0 Z " fill="#25AAFF" transform="translate(131,74)"/>
<path d="M0 0 C0.66 0 1.32 0 2 0 C1.42655063 2.86724686 1.1385485 3.8614515 -1 6 C-3.125 5.625 -3.125 5.625 -5 5 C-4.34 5 -3.68 5 -3 5 C-2.5359375 4.0409375 -2.5359375 4.0409375 -2.0625 3.0625 C-1 1 -1 1 0 0 Z " fill="#67C0FE" transform="translate(62,176)"/>
<path d="M0 0 C0.33 0 0.66 0 1 0 C1.33 2.97 1.66 5.94 2 9 C1.01 9.66 0.02 10.32 -1 11 C-1.125 3.375 -1.125 3.375 0 0 Z " fill="#67BFFD" transform="translate(89,71)"/>
<path d="M0 0 C1.0725 0.103125 2.145 0.20625 3.25 0.3125 C-1.25 3.3125 -1.25 3.3125 -5.75 6.3125 C-6.41 5.9825 -7.07 5.6525 -7.75 5.3125 C-5.36605526 1.49818842 -4.61542062 0.38461838 0 0 Z " fill="#91D1FE" transform="translate(141.75,69.6875)"/>
<path d="M0 0 C3.63 0 7.26 0 11 0 C9.515 1.485 9.515 1.485 8 3 C4.375 2.8125 4.375 2.8125 1 2 C0.67 1.34 0.34 0.68 0 0 Z " fill="#0FA1FF" transform="translate(177,30)"/>
<path d="M0 0 C1.32 0 2.64 0 4 0 C2.63016497 3.16115776 2.0109362 3.9927092 -1 6 C-1.042721 4.33388095 -1.04063832 2.66617115 -1 1 C-0.67 0.67 -0.34 0.34 0 0 Z " fill="#87CBFD" transform="translate(91,201)"/>
<path d="M0 0 C-2.93828597 2.50298434 -5.17902761 3.46930939 -9 4 C-8 1 -8 1 -5.625 -0.25 C-3 -1 -3 -1 0 0 Z " fill="#1CA5FF" transform="translate(137,33)"/>
<path d="M0 0 C0.33 0.99 0.66 1.98 1 3 C-1.31 3 -3.62 3 -6 3 C-6.33 2.34 -6.66 1.68 -7 1 C-4.50935112 0.31292445 -2.62113708 0 0 0 Z " fill="#73C5FE" transform="translate(111,128)"/>
</svg>
