<?xml version="1.0" encoding="UTF-8"?>
<svg version="1.1" xmlns="http://www.w3.org/2000/svg" width="285" height="232">
<path d="M0 0 C1.10131256 0.00141495 2.20262512 0.0028299 3.33731079 0.00428772 C6.84208942 0.00986873 10.3468033 0.02241779 13.8515625 0.03515625 C16.23307199 0.0401737 18.61458249 0.04473618 20.99609375 0.04882812 C26.82293862 0.05983194 32.64974593 0.07655118 38.4765625 0.09765625 C38.67729178 22.14187563 38.86058562 44.18617867 39.02315044 66.23071384 C39.09903895 76.46647823 39.18062229 86.70213794 39.27563477 96.93774414 C39.35843758 105.85957423 39.43053233 114.78141576 39.48979503 123.70343441 C39.52154461 128.42714695 39.55863793 133.15068059 39.60855675 137.87423897 C39.65539192 142.32202223 39.68788667 146.76968189 39.7094841 151.21765709 C39.7199113 152.8482803 39.73553433 154.47888005 39.75680351 156.10939789 C39.78511976 158.34044122 39.79451768 160.57081674 39.79936218 162.80201721 C39.80950191 164.04920312 39.81964163 165.29638903 39.83008862 166.58136845 C39.16842806 173.16246342 36.6160765 177.81472791 31.4765625 182.09765625 C28.05817201 183.84853919 26.41272231 184.09765625 22.4765625 184.09765625 C22.30640625 183.02128906 22.13625 181.94492188 21.9609375 180.8359375 C17.92499932 156.12257118 9.23256777 133.51862827 -11.5234375 118.09765625 C-28.42927609 106.18848971 -46.40358077 101.15365427 -66.9296875 100.78125 C-67.8949939 100.7604689 -68.86030029 100.73968781 -69.8548584 100.71827698 C-72.91098537 100.65336663 -75.96719158 100.59417109 -79.0234375 100.53515625 C-81.10677873 100.49191526 -83.19011221 100.44829927 -85.2734375 100.40429688 C-90.3566915 100.297746 -95.44002449 100.1963171 -100.5234375 100.09765625 C-100.5234375 95.14765625 -100.5234375 90.19765625 -100.5234375 85.09765625 C-92.9334375 85.09765625 -85.3434375 85.09765625 -77.5234375 85.09765625 C-76.8634375 81.46765625 -76.2034375 77.83765625 -75.5234375 74.09765625 C-69.92285372 48.07383213 -62.47480897 24.88325542 -39.2109375 9.66015625 C-26.82517822 2.49730751 -14.18233993 -0.06887893 0 0 Z M-23.94140625 48.203125 C-32.89950424 58.93072382 -34.65482324 73.84607269 -37.5234375 87.09765625 C-36.35296875 87.5359375 -35.1825 87.97421875 -33.9765625 88.42578125 C-33.24373047 88.70099609 -32.51089844 88.97621094 -31.75585938 89.25976562 C-29.79894953 89.99424885 -27.84096768 90.7258746 -25.8828125 91.45703125 C-18.37340103 94.3502677 -11.58724321 97.54635193 -4.71875 101.77734375 C-2.80757204 103.18355499 -2.80757204 103.18355499 -1.5234375 103.09765625 C-1.5234375 82.30765625 -1.5234375 61.51765625 -1.5234375 40.09765625 C-10.18622534 40.09765625 -17.55158635 42.05273629 -23.94140625 48.203125 Z " fill="#039DF9" transform="translate(182.5234375,28.90234375)"/>
<path d="M0 0 C6.68524831 -0.10267446 13.37028834 -0.17199085 20.05615234 -0.21972656 C22.32348223 -0.23965772 24.59076197 -0.26681268 26.85791016 -0.30175781 C43.14921734 -0.54630724 58.45972468 -0.26114192 73.1875 7.625 C73.83984619 7.96490967 74.49219238 8.30481934 75.16430664 8.6550293 C94.01817927 18.82827907 108.03680594 35.43337456 114.2578125 56.05078125 C116.12903637 63.48643402 117 70.31411826 117 78 C111.39 78 105.78 78 100 78 C99.5875 75.23625 99.175 72.4725 98.75 69.625 C96.20565664 54.0229471 89.51288864 41.16252494 77 31 C69.8341727 26.32615283 61.93285534 23.12883998 54 20 C53.76925781 21.09054688 53.53851563 22.18109375 53.30078125 23.3046875 C46.12914085 56.70382782 46.12914085 56.70382782 40 65 C39.39800781 65.81597656 38.79601562 66.63195312 38.17578125 67.47265625 C29.91972383 77.59052329 18.05997034 84.47350996 5 86 C-0.67017715 86.27873598 -6.32839852 86.18143749 -12 86 C-12.17102625 81.93767164 -12.33598818 77.87511713 -12.5 73.8125 C-12.54769531 72.68134766 -12.59539062 71.55019531 -12.64453125 70.38476562 C-12.95561906 62.58534972 -13.05818215 54.80529668 -13 47 C-12.2272876 46.95439941 -11.4545752 46.90879883 -10.65844727 46.86181641 C-4.8364482 46.48883235 -0.03678181 46.04305568 5 43 C7.90503473 38.16823272 9.26177869 33.02637317 10.6875 27.625 C10.91244141 26.79355469 11.13738281 25.96210938 11.36914062 25.10546875 C11.91845366 23.07184178 12.46002127 21.03612534 13 19 C12.22914062 18.86078125 11.45828125 18.7215625 10.6640625 18.578125 C6.56439995 17.68846216 3.95362362 16.08515791 1.1875 12.9375 C-0.04949006 9.87757721 -0.12440398 8.07316374 -0.07421875 4.81640625 C-0.06350342 3.9147876 -0.05278809 3.01316895 -0.04174805 2.08422852 C-0.02797119 1.39643311 -0.01419434 0.7086377 0 0 Z " fill="#0498F0" transform="translate(82,135)"/>
<path d="M0 0 C17.85649203 0.77904328 17.85649203 0.77904328 26 3 C26 3.66 26 4.32 26 5 C26.9075 5.0825 27.815 5.165 28.75 5.25 C32.54942342 6.12679002 33.65942044 6.92671727 36 10 C37.42975608 23.86863397 31.58580386 37.29388855 23.3984375 48.1171875 C16.18799097 56.28055648 2.98424761 63.29887781 -8 64 C-13.66933011 64.16682544 -19.33027156 64.11717005 -25 64 C-25.17102625 59.93767164 -25.33598818 55.87511713 -25.5 51.8125 C-25.54769531 50.68134766 -25.59539062 49.55019531 -25.64453125 48.38476562 C-25.95561906 40.58534972 -26.05818215 32.80529668 -26 25 C-25.2272876 24.95391602 -24.4545752 24.90783203 -23.65844727 24.86035156 C-17.72958943 24.48371349 -13.33402069 23.55588491 -8 21 C-7.01 21 -6.02 21 -5 21 C-4.58427734 19.22882813 -4.58427734 19.22882813 -4.16015625 17.421875 C-3.7942857 15.86457984 -3.42839946 14.30728837 -3.0625 12.75 C-2.88009766 11.97269531 -2.69769531 11.19539062 -2.50976562 10.39453125 C-2.33251953 9.64042969 -2.15527344 8.88632813 -1.97265625 8.109375 C-1.81031494 7.41811523 -1.64797363 6.72685547 -1.48071289 6.01464844 C-1.0014338 4.00600899 -0.50453398 2.00243058 0 0 Z " fill="#039DF9" transform="translate(95,157)"/>
<path d="M0 0 C5.21049021 0.11938867 10.42083297 0.24369531 15.63110352 0.37231445 C17.39897578 0.41529195 19.16687972 0.45698823 20.93481445 0.49731445 C48.42198358 1.12679161 48.42198358 1.12679161 56 5 C54 6 54 6 52.0546875 5.44140625 C51.33539063 5.15136719 50.61609375 4.86132812 49.875 4.5625 C49.15054688 4.27503906 48.42609375 3.98757812 47.6796875 3.69140625 C46.84824219 3.34916016 46.84824219 3.34916016 46 3 C45.73445313 4.26457031 45.46890625 5.52914062 45.1953125 6.83203125 C44.83887921 8.49226 44.4820898 10.15241233 44.125 11.8125 C43.95097656 12.64587891 43.77695313 13.47925781 43.59765625 14.33789062 C43.42363281 15.14033203 43.24960938 15.94277344 43.0703125 16.76953125 C42.83465576 17.87711792 42.83465576 17.87711792 42.59423828 19.00708008 C42 21 42 21 40 24 C40.03480469 23.37351563 40.06960937 22.74703125 40.10546875 22.1015625 C40.14607422 20.87566406 40.14607422 20.87566406 40.1875 19.625 C40.22230469 18.81289062 40.25710937 18.00078125 40.29296875 17.1640625 C40.19628906 16.44992188 40.09960938 15.73578125 40 15 C39.01 14.34 38.02 13.68 37 13 C37 12.34 37 11.68 37 11 C35.02 10.67 33.04 10.34 31 10 C31 9.34 31 8.68 31 8 C29.06447266 7.80083984 29.06447266 7.80083984 27.08984375 7.59765625 C25.37238852 7.41934123 23.65494101 7.24095187 21.9375 7.0625 C21.08994141 6.97548828 20.24238281 6.88847656 19.36914062 6.79882812 C14.56087034 6.29757987 9.78050517 5.71999467 5 5 C4.9175 6.051875 4.835 7.10375 4.75 8.1875 C4.00810063 14.33308436 1.92058197 20.13999174 0 26 C-0.66 26 -1.32 26 -2 26 C-1.82984375 25.44054687 -1.6596875 24.88109375 -1.484375 24.3046875 C0.75607324 16.89214065 2.88542553 9.44931312 5 2 C3.35 1.67 1.7 1.34 0 1 C0 0.67 0 0.34 0 0 Z " fill="#0679B8" transform="translate(90,152)"/>
<path d="M0 0 C7.59 0 15.18 0 23 0 C23 0.33 23 0.66 23 1 C15.74 1 8.48 1 1 1 C1 4.96 1 8.92 1 13 C2.29099609 12.99476318 3.58199219 12.98952637 4.91210938 12.98413086 C9.72785746 12.96595298 14.54360254 12.95452143 19.359375 12.94506836 C21.43880728 12.94005729 23.51823607 12.93324665 25.59765625 12.92456055 C28.59636297 12.91235317 31.59502286 12.90673929 34.59375 12.90234375 C35.97548401 12.89460182 35.97548401 12.89460182 37.38513184 12.88670349 C42.68503511 12.88624876 47.75541013 13.22669058 53 14 C53 14.66 53 15.32 53 16 C54.27875 16.0825 55.5575 16.165 56.875 16.25 C62.34050801 16.83217653 67.01815378 18.76388948 72 21 C70 22 70 22 67.41796875 21.29296875 C65.29235837 20.56558334 63.1673405 19.83646375 61.04296875 19.10546875 C48.0672539 15.28261442 34.58450381 15.58205343 21.1875 15.375 C19.12693814 15.33673636 17.06639083 15.29768005 15.00585938 15.2578125 C10.00402715 15.16273909 5.00212048 15.07838217 0 15 C0 10.05 0 5.1 0 0 Z " fill="#197BAE" transform="translate(82,114)"/>
<path d="M0 0 C8.57142857 0.85714286 8.57142857 0.85714286 12 3 C10 4 10 4 8.0546875 3.44140625 C6.97574219 3.00634766 6.97574219 3.00634766 5.875 2.5625 C5.15054688 2.27503906 4.42609375 1.98757812 3.6796875 1.69140625 C3.12539062 1.46324219 2.57109375 1.23507813 2 1 C1.73445312 2.26457031 1.46890625 3.52914062 1.1953125 4.83203125 C0.83887921 6.49226 0.4820898 8.15241233 0.125 9.8125 C-0.04902344 10.64587891 -0.22304687 11.47925781 -0.40234375 12.33789062 C-0.57636719 13.14033203 -0.75039062 13.94277344 -0.9296875 14.76953125 C-1.16534424 15.87711792 -1.16534424 15.87711792 -1.40576172 17.00708008 C-2 19 -2 19 -4 22 C-4.2248832 16.5957757 -3.4886411 12.18724757 -2 7.0625 C-1.80921875 6.37865234 -1.6184375 5.69480469 -1.421875 4.99023438 C-0.95595063 3.32455474 -0.47911589 1.66193325 0 0 Z " fill="#3781A7" transform="translate(134,154)"/>
<path d="M0 0 C0.33 0.99 0.66 1.98 1 3 C-0.24034412 4.32162881 -1.49268626 5.63200453 -2.75 6.9375 C-3.44609375 7.66839844 -4.1421875 8.39929688 -4.859375 9.15234375 C-7.00599725 11.00517646 -8.23532932 11.60771565 -11 12 C-7.49102731 7.81576108 -3.91939465 3.80411834 0 0 Z " fill="#0777B4" transform="translate(136,44)"/>
<path d="M0 0 C4.04191465 4.49101628 6.43674441 9.58984989 9 15 C8.34 15 7.68 15 7 15 C5.52734375 12.98828125 5.52734375 12.98828125 3.9375 10.3125 C3.41027344 9.44238281 2.88304687 8.57226562 2.33984375 7.67578125 C1.03288263 5.0656694 0.41943514 2.87390743 0 0 Z " fill="#2578A0" transform="translate(184,168)"/>
<path d="M0 0 C3.77545388 1.09068668 6.47043472 1.9083091 9 5 C8.01 5.495 8.01 5.495 7 6 C5.0546875 5.22265625 5.0546875 5.22265625 2.875 4.0625 C2.15054688 3.68222656 1.42609375 3.30195313 0.6796875 2.91015625 C0.12539062 2.60980469 -0.42890625 2.30945313 -1 2 C-0.67 1.34 -0.34 0.68 0 0 Z " fill="#207DAA" transform="translate(155,135)"/>
</svg>
